<?xml version="1.0" encoding="UTF-8" standalone="no"?><!DOCTYPE svg PUBLIC "-//W3C//DTD SVG 1.1//EN" "http://www.w3.org/Graphics/SVG/1.1/DTD/svg11.dtd"><svg width="100%" height="100%" viewBox="0 0 512 512" version="1.1" xmlns="http://www.w3.org/2000/svg" xmlns:xlink="http://www.w3.org/1999/xlink" xml:space="preserve" xmlns:serif="http://www.serif.com/" style="fill-rule:evenodd;clip-rule:evenodd;stroke-linejoin:round;stroke-miterlimit:2;"><g><path d="M256.212,4.266c-141.679,-0 -256.212,115.378 -256.212,258.115c0,114.098 73.385,210.68 175.19,244.863c12.729,2.57 17.391,-5.554 17.391,-12.387c0,-5.984 -0.42,-26.495 -0.42,-47.866c-71.271,15.387 -86.113,-30.769 -86.113,-30.769c-11.454,-29.914 -28.425,-37.603 -28.425,-37.603c-23.327,-15.812 1.699,-15.812 1.699,-15.812c25.876,1.71 39.454,26.495 39.454,26.495c22.903,39.312 59.808,28.205 74.655,21.366c2.118,-16.667 8.91,-28.205 16.121,-34.613c-56.844,-5.984 -116.652,-28.205 -116.652,-127.351c-0,-28.205 10.174,-51.28 26.296,-69.227c-2.544,-6.408 -11.454,-32.909 2.548,-68.377c0,0 21.634,-6.838 70.412,26.495c20.884,-5.65 42.421,-8.524 64.056,-8.548c21.633,-0 43.686,2.994 64.05,8.548c48.784,-33.333 70.417,-26.495 70.417,-26.495c14.003,35.468 5.087,61.969 2.544,68.377c16.546,17.947 26.301,41.022 26.301,69.227c-0,99.146 -59.808,120.937 -117.077,127.351c9.335,8.118 17.39,23.5 17.39,47.86c0,34.614 -0.419,62.393 -0.419,70.937c-0,6.838 4.667,14.962 17.39,12.398c101.805,-34.194 175.191,-130.771 175.191,-244.869c0.419,-142.737 -114.533,-258.115 -255.787,-258.115Z"/></g></svg>