<?xml version="1.0" encoding="UTF-8" standalone="no"?><!DOCTYPE svg PUBLIC "-//W3C//DTD SVG 1.1//EN" "http://www.w3.org/Graphics/SVG/1.1/DTD/svg11.dtd"><svg width="100%" height="100%" viewBox="0 0 512 512" version="1.1" xmlns="http://www.w3.org/2000/svg" xmlns:xlink="http://www.w3.org/1999/xlink" xml:space="preserve" xmlns:serif="http://www.serif.com/" style="fill-rule:evenodd;clip-rule:evenodd;stroke-linejoin:round;stroke-miterlimit:2;"><g><path d="M474.102,0.005c20.885,0 37.898,16.526 37.898,36.896l-0,438.152c-0,20.391 -17.013,36.942 -37.898,36.942l-436.314,-0c-20.85,-0 -37.788,-16.551 -37.788,-36.942l-0,-438.152c-0,-20.37 16.938,-36.896 37.788,-36.896l436.314,0Zm-274.618,191.947l-0,244.336l75.874,-0l-0,-120.872c-0,-31.868 6.066,-62.733 45.578,-62.733c38.939,-0 39.462,36.451 39.462,64.784l-0,118.821l75.888,-0l0,-134.021c0,-65.779 -14.201,-116.392 -91.099,-116.392c-36.941,0 -61.712,20.252 -71.852,39.463l-1.017,-0l-0,-33.386l-72.834,-0Zm-123.574,-0l-0,244.336l75.945,-0l-0,-244.336l-75.945,-0Zm37.99,-121.456c-24.341,0 -44.042,19.73 -44.042,44.017c0,24.305 19.701,44.038 44.042,44.038c24.277,0 44.006,-19.733 44.006,-44.038c0,-24.287 -19.729,-44.017 -44.006,-44.017Z"/></g></svg>